# AST/ASF file generated using VICON BodyLanguage
# -----------------------------------------------
:version 1.10
:name VICON
:units
  mass 1.0
  length 0.45
  angle deg
:documentation
   .ast/.asf automatically generated from VICON data using
   VICON BodyBuilder and BodyLanguage model FoxedUp or BRILLIANT.MOD
:root
   order TX TY TZ RX RY RZ
   axis XYZ
   position 0 0 0  
   orientation 0 0 0 
:bonedata
  begin
     id 1 
     name lhipjoint
     direction 0.521452 -0.77106 0.36545 
     length 2.0933 
     axis 0 0 0  XYZ
  end
  begin
     id 2 
     name lfemur
     direction 0.34202 -0.939693 0  
     length 6.83441  
     axis 0 0 20  XYZ
    dof rx ry rz
    limits (-160.0 20.0)
           (-70.0 70.0)
           (-60.0 70.0)
  end
  begin
     id 3 
     name ltibia
     direction 0.34202 -0.939693 0   
     length 7.28749   
     axis 0 0 20   XYZ
    dof rx
    limits (-10.0 170.0)
  end
  begin
     id 4 
     name lfoot
     direction 0.100608 -0.276418 0.955757   
     length 1.52195   
     axis -90 7.62852e-016 20   XYZ
    dof rx rz
    limits (-45.0 90.0)
           (-70.0 20.0)
  end
  begin
     id 5 
     name ltoes
     direction 1.53558e-011 -4.21907e-011 1   
     length 0.770459   
     axis -90 7.62852e-016 20   XYZ
    dof rx
    limits (-90.0 20.0)
  end
  begin
     id 6 
     name rhipjoint
     direction -0.488071 -0.788702 0.373812   
     length 2.04648  
     axis 0 0 0  XYZ 
  end
  begin
     id 7 
     name rfemur
     direction -0.34202 -0.939693 0   
     length 6.92583   
     axis 0 0 -20   XYZ
    dof rx ry rz
    limits (-160.0 20.0)
           (-70.0 70.0)
           (-70.0 60.0)
  end
  begin
     id 8 
     name rtibia
     direction -0.34202 -0.939693 0   
     length 7.41043   
     axis 0 0 -20   XYZ
    dof rx
    limits (-10.0 170.0)
 end
 begin
     id 9 
     name rfoot
     direction -0.0784433 -0.215521 0.973343   
     length 1.67708  
     axis -90 -7.62852e-016 -20   XYZ
    dof rx rz
    limits (-45.0 90.0)
           (-20.0 70.0)
  end
  begin
     id 10 
     name rtoes
     direction -1.53551e-011 -4.21842e-011 1   
     length 0.849787   
     axis -90 -7.62852e-016 -20   XYZ
    dof rx
    limits (-90.0 20.0)
  end
  begin
     id 11 
     name lowerback
     direction -0.0122332 0.997575 -0.0685192   
     length 1.98724   
     axis 0 0 0   XYZ
    dof rx ry rz
    limits (-20.0 45.0)
           (-30.0 30.0)
           (-30.0 30.0)
  end
  begin
     id 12 
     name upperback
     direction 0.0182347 0.999724 -0.0148421   
     length 1.99029   
     axis 0 0 0   XYZ
    dof rx ry rz
    limits (-20.0 45.0)
           (-30.0 30.0)
           (-30.0 30.0)
  end
  begin
     id 13 
     name thorax
     direction 0.0242908 0.99956 0.0170184   
     length 1.99573   
     axis 0 0 0   XYZ
    dof rx ry rz
    limits (-20.0 45.0)
           (-30.0 30.0)
           (-30.0 30.0)
  end
  begin
     id 14 
     name lowerneck
     direction 0.0654488 0.985533 0.156338   
     length 1.4285   
     axis 0 0 0   XYZ
    dof rx ry rz
    limits (-20.0 45.0)
           (-30.0 30.0)
           (-30.0 30.0)
  end
  begin
     id 15 
     name upperneck
     direction -0.02953 0.998556 -0.0448842   
     length 1.44709   
     axis 0 0 0   XYZ
    dof rx ry rz
    limits (-20.0 45.0)
           (-30.0 30.0)
           (-30.0 30.0)
  end
  begin
     id 16
     name head
     direction -0.0155588 0.999386 -0.0314063  
     length 1.44689  
     axis 0 0 0   XYZ
    dof rx ry rz
    limits (-20.0 45.0)
           (-30.0 30.0)
           (-30.0 30.0)
  end
  begin
     id 17 
     name lclavicle
     direction 0.968229 0.236071 -0.0824755  
     length 3.60593  
     axis 0 0 0   XYZ
    dof ry rz
    limits (-20.0 10.0)
           (0.0 20.0)
  end
  begin
     id 18 
     name lhumerus
     direction 1 -4.48968e-011 7.8138e-029   
     length 5.06035   
     axis 180 -30 -90   XYZ
    dof rx ry rz
    limits (-60.0 90.0)
           (-90.0 90.0)
           (-90.0 90.0)
  end
  begin
     id 19
     name lradius
     direction 1 -4.48967e-011 9.02887e-028   
     length 3.1478   
     axis 180 -30 -90   XYZ
    dof rx
    limits (-10.0 170.0)
  end
  begin
     id 20
     name lwrist
     direction 1 -4.48961e-011 7.20928e-028   
     length 1.5739   
     axis -5.52449e-016 90 90   XYZ
    dof ry
    limits (-180.0 0.0)
 end
  begin
     id 21 
     name lhand
     direction 1 -4.48972e-011 1.44186e-027   
     length 0.606747   
     axis -9.20027e-016 90 90   XYZ
    dof rx rz
    limits (-90.0 90.0)
           (-45.0 45.0)
  end
  begin
     id 22 
     name lfingers
     direction 1 -4.48943e-011 2.88371e-027   
     length 0.489175   
     axis -1.84005e-015 90 90   XYZ
    dof rx
    limits (0.0 90.0)
  end
  begin
     id 23
     name lthumb
     direction 0.707107 -6.34917e-011 0.707107   
     length 0.70236   
     axis -90 45 2.85299e-015   XYZ
    dof rx rz
    limits (-45.0 45.0)
           (-45.0 45.0)
  end
  begin
     id 24 
     name rclavicle
     direction -0.978165 0.207816 0.0022268   
     length 3.35425  
     axis 0 0 0   XYZ 
    dof ry rz
    limits (-10.0 20.0)
           (-20.0 0.0)
  end
  begin
     id 25 
     name rhumerus
     direction -1 -4.48964e-011 -4.02159e-027  
     length 5.12273   
     axis 180 30 90   XYZ
    dof rx ry rz
    limits (-90.0 60.0)
           (-90.0 90.0)
           (-90.0 90.0)
  end
  begin
     id 26 
     name rradius
     direction -1 -4.48966e-011 1.62746e-027   
     length 3.422   
     axis 180 30 90   XYZ
    dof rx
    limits (-10.0 170.0)
  end
  begin
     id 27 
     name rwrist
     direction -1 -4.4896e-011 7.20928e-028   
     length 1.711   
     axis -5.52449e-016 -90 -90   XYZ
    dof ry
    limits (-180.0 0.0)
  end
  begin
     id 28
     name rhand
     direction -1 -4.48979e-011 1.44186e-027   
     length 0.704599   
     axis -9.20027e-016 -90 -90   XYZ
    dof rx rz
    limits (-90.0 90.0)
           (-45.0 45.0)
  end
  begin
     id 29
     name rfingers
     direction -1 -4.48962e-011 2.88371e-027   
     length 0.568066   
     axis -1.84005e-015 -90 -90   XYZ
    dof rx
    limits (0.0 90.0)
  end
  begin
     id 30
     name rthumb
     direction -0.707107 -6.34949e-011 0.707107   
     length 0.815633   
     axis -90 -45 -2.85299e-015   XYZ
    dof rx rz
    limits (-45.0 45.0)
           (-45.0 45.0)
  end
:hierarchy
  begin
    root lhipjoint rhipjoint lowerback
    lhipjoint lfemur
    lfemur ltibia
    ltibia lfoot
    lfoot ltoes
    rhipjoint rfemur
    rfemur rtibia
    rtibia rfoot
    rfoot rtoes
    lowerback upperback
    upperback thorax
    thorax lowerneck lclavicle rclavicle
    lowerneck upperneck
    upperneck head
    lclavicle lhumerus
    lhumerus lradius
    lradius lwrist
    lwrist lhand lthumb
    lhand lfingers
    rclavicle rhumerus
    rhumerus rradius
    rradius rwrist
    rwrist rhand rthumb
    rhand rfingers
  end

#!OML:ASF E:\id_vita\Project 1\Capture day 1\Session 1\Male1.ASF
:FULLY-SPECIFIED
:DEGREES
239
root -32.4364 12.8965 -4.21467 16.7801 74.3422 -27.8072
lowerback 32.8144 2.06343 -5.53446
upperback 10.9688 1.41311 -5.47811
thorax -4.70444 1.07466 -3.29157
lowerneck -8.83834 0.281715 0.872595
upperneck 31.283 -0.11737 4.61816
head 11.6535 0.753428 1.58151
rclavicle 1.43125e-014 5.43676e-014
rhumerus 56.6786 11.4656 -67.1065
rradius 57.7271
rwrist 26.4323
rhand -43.8587 84.872
rfingers 7.12502
rthumb -16.6852 55.5691
lclavicle 1.43125e-014 5.43676e-014
lhumerus 55.8321 -1.12626 35.0122
lradius 55.1616
lwrist -17.8108
lhand -36.8767 83.3693
lfingers 7.12502
lthumb -9.95568 -113.114
rfemur -43.2589 1.97681 23.3521
rtibia 65.4839
rfoot -50.4603 -12.8897
rtoes 14.3088
lfemur -89.3674 15.0766 -15.7982
ltibia 88.5086
lfoot -40.09 10.6379
ltoes 20.6658
240
root -32.4182 12.8793 -4.2112 17.7127 74.2885 -26.907
lowerback 32.9762 2.01284 -5.51123
upperback 10.7794 1.30947 -5.55705
thorax -4.97292 1.02771 -3.36314
lowerneck -9.13886 0.148551 0.669135
upperneck 31.3458 -0.374496 4.95094
head 11.7478 0.660508 1.71527
rclavicle 2.8625e-014 -1.69961e-014
rhumerus 56.6389 11.7089 -66.8376
rradius 57.7498
rwrist 26.1814
rhand -43.5795 84.8092
rfingers 7.12502
rthumb -16.4164 55.4839
lclavicle 2.8625e-014 -1.69961e-014
lhumerus 55.5955 -1.15727 35.1455
lradius 55.1821
lwrist -17.8699
lhand -37.0993 83.0552
lfingers 7.12502
lthumb -10.1704 -112.789
rfemur -43.1819 1.85268 23.2297
rtibia 65.5297
rfoot -50.6271 -13.0006
rtoes 14.8347
lfemur -89.3859 14.8805 -15.9274
ltibia 88.7127
lfoot -40.3778 10.8617
ltoes 20.7163
241
root -32.4018 12.8625 -4.20594 18.1241 74.1134 -26.5952
lowerback 33.0427 2.0216 -5.48463
upperback 10.5827 1.28468 -5.58207
thorax -5.21296 1.01303 -3.40244
lowerneck -9.47044 0.212856 0.544876
upperneck 31.2534 -0.313407 5.05314
head 11.7773 0.686582 1.78376
rclavicle -3.81667e-014 3.17062e-014
rhumerus 56.6082 11.8853 -66.7274
rradius 57.6511
rwrist 26.2561
rhand -42.9879 84.543
rfingers 7.12502
rthumb -15.8467 55.1715
lclavicle -3.81667e-014 3.17062e-014
lhumerus 55.2435 -1.1374 35.3865
lradius 55.2697
lwrist -18.0404
lhand -37.2792 82.7976
lfingers 7.12502
lthumb -10.344 -112.523
rfemur -43.2257 2.04326 23.0884
rtibia 65.5505
rfoot -50.864 -13.1153
rtoes 14.8733
lfemur -89.4511 14.8932 -15.9291
ltibia 88.9281
lfoot -40.5657 10.9256
ltoes 20.8182
242
root -32.3841 12.849 -4.19885 18.031 73.9234 -26.6853
lowerback 33.1737 2.00479 -5.43702
upperback 10.4208 1.23752 -5.58909
thorax -5.44027 0.988648 -3.42753
lowerneck -9.85594 0.627664 0.350502
upperneck 31.1286 0.248603 5.17079
head 11.7876 0.925141 1.93196
rclavicle 6.36111e-015 2.31584e-014
rhumerus 56.7853 12.2416 -66.4928
rradius 57.2488
rwrist 26.6176
rhand -43.3606 85.2126
rfingers 7.12502
rthumb -16.2056 55.87
lclavicle 6.36111e-015 2.31584e-014
lhumerus 54.7091 -0.977143 35.5556
lradius 55.3354
lwrist -18.1714
lhand -37.513 82.6875
lfingers 7.12502
lthumb -10.5696 -112.402
rfemur -43.0931 2.26705 23.1132
rtibia 65.5177
rfoot -51.0299 -13.3687
rtoes 15.1196
lfemur -89.4007 14.9901 -15.8114
ltibia 89.1455
lfoot -40.6435 10.8683
ltoes 21.3605
243
root -32.3653 12.8367 -4.19111 17.9636 73.8564 -26.6704
lowerback 33.3624 1.94545 -5.36582
upperback 10.3028 1.15076 -5.61386
thorax -5.64235 0.949081 -3.47107
lowerneck -10.1995 0.940617 0.346054
upperneck 31.0078 0.639485 5.25607
head 11.7972 1.10593 2.01419
rclavicle -4.6118e-014 6.26172e-015
rhumerus 56.9208 12.4767 -66.6199
rradius 56.834
rwrist 27.043
rhand -43.5981 84.8112
rfingers 7.12502
rthumb -16.4343 55.4873
lclavicle -4.6118e-014 6.26172e-015
lhumerus 54.3612 -0.878661 35.5396
lradius 55.2815
lwrist -18.2069
lhand -37.791 82.4709
lfingers 7.12502
lthumb -10.8376 -112.171
rfemur -42.8497 2.39348 23.1524
rtibia 65.4232
rfoot -51.5498 -13.3348
rtoes 15.6308
lfemur -89.2807 14.9829 -15.7111
ltibia 89.3826
lfoot -40.7476 10.8097
ltoes 21.7903
244
root -32.3467 12.8239 -4.17895 17.4799 73.8042 -27.1176
lowerback 33.4712 1.93361 -5.26126
upperback 10.2158 1.14468 -5.60496
thorax -5.77954 0.945514 -3.52038
lowerneck -10.4441 1.06927 0.503856
upperneck 30.7984 0.751984 5.28808
head 11.7625 1.17492 2.00978
rclavicle -1.74931e-014 -3.33958e-014
rhumerus 56.4891 12.7047 -67.5026
rradius 57.2497
rwrist 27.1727
rhand -43.3211 85.6918
rfingers 7.12502
rthumb -16.1676 56.3461
lclavicle -1.74931e-014 -3.33958e-014
lhumerus 54.2479 -0.806379 35.5339
lradius 55.1331
lwrist -18.2292
lhand -38.0738 81.9719
lfingers 7.12502
lthumb -11.1104 -111.658
rfemur -42.6825 2.73787 23.2194
rtibia 65.314
rfoot -51.8284 -12.7826
rtoes 15.401
lfemur -89.1806 15.0409 -15.4398
ltibia 89.666
lfoot -40.9149 10.7888
ltoes 20.9077
245
root -32.3268 12.8126 -4.16858 16.9195 73.779 -27.6364
lowerback 33.548 1.89791 -5.08612
upperback 10.1734 1.14277 -5.56493
thorax -5.8573 0.943715 -3.57317
lowerneck -10.7724 1.14676 0.335253
upperneck 30.6224 0.781113 5.60708
head 11.7562 1.20607 2.16183
rclavicle -3.65764e-014 -1.31198e-014
rhumerus 56.8628 12.7997 -67.3144
rradius 56.8163
rwrist 27.3239
rhand -42.9374 85.3605
rfingers 7.12502
rthumb -15.7981 55.9852
lclavicle -3.65764e-014 -1.31198e-014
lhumerus 54.0947 -0.706304 35.5781
lradius 55.0526
lwrist -18.2191
lhand -38.3244 81.5718
lfingers 7.12502
lthumb -11.3522 -111.245
rfemur -42.4684 2.94117 23.352
rtibia 65.2676
rfoot -51.8872 -12.708
rtoes 15.1794
lfemur -89.075 15.0819 -15.1669
ltibia 89.9541
lfoot -40.9535 10.9161
ltoes 21.9804
246
root -32.3083 12.7999 -4.16308 17.1511 73.7604 -27.3871
lowerback 33.5411 1.82856 -4.98392
upperback 10.1387 1.08049 -5.61053
thorax -5.89626 0.915829 -3.65455
lowerneck -11.1131 1.16525 0.152071
upperneck 30.4999 0.714177 5.99751
head 11.777 1.20368 2.33331
rclavicle 4.77083e-014 -2.22639e-014
rhumerus 57.0806 13.1117 -66.7961
rradius 56.7303
rwrist 26.8865
rhand -43.9935 88.6091
rfingers 7.12502
rthumb -16.815 59.3172
lclavicle 4.77083e-014 -2.22639e-014
lhumerus 53.9428 -0.657505 35.5375
lradius 54.9724
lwrist -18.0905
lhand -38.4216 80.9485
lfingers 7.12502
lthumb -11.4459 -110.616
rfemur -42.3128 2.83328 23.3457
rtibia 65.3326
rfoot -51.7504 -13.0594
rtoes 15.1845
lfemur -89.0523 14.9385 -15.1333
ltibia 90.2262
lfoot -40.9919 11.2027
ltoes 22.4423
247
root -32.2904 12.7846 -4.15757 17.8913 73.6989 -26.6803
lowerback 33.4339 1.8631 -4.97228
upperback 10.1105 1.12486 -5.65936
thorax -5.88603 0.93642 -3.72492
lowerneck -11.3569 1.11159 0.123764
upperneck 30.2887 0.572465 6.1847
head 11.7487 1.16032 2.38745
rclavicle -6.04305e-014 3.77691e-015
rhumerus 57.0383 12.9836 -66.7129
rradius 56.6869
rwrist 26.477
rhand -43.3609 89.1996
rfingers 7.12502
rthumb -16.2059 59.857
lclavicle -6.04305e-014 3.77691e-015
lhumerus 54.0299 -0.750796 35.6431
lradius 54.8085
lwrist -17.8553
lhand -38.3365 79.5115
lfingers 7.12502
lthumb -11.3638 -109.184
rfemur -42.3429 2.76273 23.1763
rtibia 65.448
rfoot -51.7331 -13.1229
rtoes 15.3536
lfemur -89.1242 14.7262 -15.2213
ltibia 90.4979
lfoot -41.0331 11.5897
ltoes 24.1595
248
root -32.2708 12.7718 -4.1511 18.1346 73.6574 -26.4467
lowerback 33.4358 1.84229 -4.77556
upperback 10.0409 1.14362 -5.69645
thorax -5.96501 0.945444 -3.87641
lowerneck -11.51 1.11174 -0.0793713
upperneck 30.0959 0.534885 6.44168
head 11.7027 1.15127 2.51027
rclavicle 5.08889e-014 9.76033e-014
rhumerus 57.0672 13.0944 -66.3939
rradius 56.7498
rwrist 26.081
rhand -43.2631 89.0988
rfingers 7.12502
rthumb -16.1117 59.7485
lclavicle 5.08889e-014 9.76033e-014
lhumerus 54.0042 -0.810663 35.8609
lradius 54.6786
lwrist -17.8147
lhand -37.1746 81.0642
lfingers 7.12502
lthumb -10.243 -110.795
rfemur -42.3166 2.86727 23.0793
rtibia 65.5804
rfoot -51.7712 -13.1664
rtoes 15.4154
lfemur -89.1507 14.6135 -15.1742
ltibia 90.7691
lfoot -40.9668 11.8277
ltoes 22.8014
